# xmcd CD database file
#
# Track frame offsets:
#	150
#	13830
#	28054
#	40818
#	51023
#	63769
#	76905
#	90715
#	104005
#	116749
#	127610
#	138757
#	152750
#	165931
#	179401
#	190653
#	202655
#	215563
#	228627
#	241729
#	252597
#	267156
#	280187
#	292952
#
# Disc length: 4095 seconds
#
# Revision: 0
# Processed by: cddbd v1.5.2PL0 Copyright (c) Steve Scherf et al.
# Submitted via: CDex 1.75
#
DISCID=430ffd18
DTITLE=Muddy Waters - The Chess Singles Collection and At Newport 1960 CD2
DYEAR=1960
DGENRE=Blues
TTITLE0=Mad Love (I want you to love me)
TTITLE1=Blow wind blow
TTITLE2=Hoochie coochie man
TTITLE3=She's so pretty
TTITLE4=I just want to make love to you
TTITLE5=Oh, yeh
TTITLE6=I'm ready
TTITLE7=I don't know why
TTITLE8=I'm a natural born lover
TTITLE9=Loving man
TTITLE10=I want to be loved
TTITLE11=My eyes (keep me in trouble)
TTITLE12=Mannish boy
TTITLE13=Young fashioned ways 
TTITLE14=Sugar sweet
TTITLE15=Trouble no more
TTITLE16=Forty days and forty nights
TTITLE17=All aboard
TTITLE18=Don't go no farther
TTITLE19=Diamonds at your feet
TTITLE20=Just to be with you
TTITLE21=I got to find my baby
TTITLE22=Got my mojo working
TTITLE23=Rock me
EXTD=YEAR: 1960
EXTT0=
EXTT1=
EXTT2=
EXTT3=
EXTT4=
EXTT5=
EXTT6=
EXTT7=
EXTT8=
EXTT9=
EXTT10=
EXTT11=
EXTT12=
EXTT13=
EXTT14=
EXTT15=
EXTT16=
EXTT17=
EXTT18=
EXTT19=
EXTT20=
EXTT21=
EXTT22=
EXTT23=
PLAYORDER=
